<svg width="208" height="176" viewBox="0 0 208 176" fill="none" xmlns="http://www.w3.org/2000/svg">
<path d="M208 87.5C208 138.378 165.595 175.5 106 175.5C46.4052 175.5 0 136.878 0 86C0 35.1223 45.4052 0 105 0C164.595 0 208 36.6223 208 87.5Z" fill="url(#paint0_linear_6_27)"/>
<path d="M192.5 83C192.5 133.878 164.095 143 104.5 143C44.9052 143 15 131.878 15 81C15 30.1223 49.2878 23.6531 108.883 23.6531C168.477 23.6531 192.5 32.1223 192.5 83Z" fill="url(#paint1_linear_6_27)"/>
<ellipse cx="57.9915" cy="77.8408" rx="13.8889" ry="21.4238" fill="white"/>
<path d="M71.3803 77.8408C71.3803 83.6746 69.8464 88.933 67.3928 92.7177C64.9361 96.5073 61.601 98.7646 57.9915 98.7646C54.3819 98.7646 51.0468 96.5073 48.5901 92.7177C46.1365 88.933 44.6026 83.6746 44.6026 77.8408C44.6026 72.007 46.1365 66.7486 48.5901 62.9639C51.0468 59.1743 54.3819 56.9171 57.9915 56.9171C61.601 56.9171 64.9361 59.1743 67.3928 62.9639C69.8464 66.7486 71.3803 72.007 71.3803 77.8408Z" stroke="#3B82F6" stroke-opacity="0.8"/>
<ellipse cx="147.735" cy="77.8408" rx="13.8889" ry="21.4238" fill="white"/>
<path d="M161.124 77.8408C161.124 83.6746 159.59 88.933 157.136 92.7177C154.68 96.5073 151.345 98.7646 147.735 98.7646C144.126 98.7646 140.79 96.5073 138.334 92.7177C135.88 88.933 134.346 83.6746 134.346 77.8408C134.346 72.007 135.88 66.7486 138.334 62.9639C140.79 59.1743 144.126 56.9171 147.735 56.9171C151.345 56.9171 154.68 59.1743 157.136 62.9639C159.59 66.7486 161.124 72.007 161.124 77.8408Z" stroke="#3B82F6" stroke-opacity="0.8"/>
<defs>
<linearGradient id="paint0_linear_6_27" x1="104.01" y1="184.244" x2="104.01" y2="8.67376e-06" gradientUnits="userSpaceOnUse">
<stop stop-color="#3B82F6" stop-opacity="0.8"/>
<stop offset="1" stop-color="#2563EB"/>
</linearGradient>
<linearGradient id="paint1_linear_6_27" x1="104.01" y1="185.245" x2="104.01" y2="1.00006" gradientUnits="userSpaceOnUse">
<stop stop-color="#3B82F6" stop-opacity="0.8"/>
<stop offset="1" stop-color="#2563EB"/>
</linearGradient>
</defs>
</svg>
