<svg width="300" height="300" viewBox="0 0 300 300" fill="none" xmlns="http://www.w3.org/2000/svg">
<rect width="300" height="300" fill="white"/>
<path d="M253 121.5C253 172.378 210.595 209.5 151 209.5C91.4052 209.5 45 170.878 45 120C45 69.1223 90.4052 34 150 34C209.595 34 253 70.6223 253 121.5Z" fill="url(#paint0_linear_1_2)"/>
<path d="M237.5 117C237.5 167.878 209.095 177 149.5 177C89.9052 177 60 165.878 60 115C60 64.1223 94.2878 57.6531 153.883 57.6531C213.477 57.6531 237.5 66.1223 237.5 117Z" fill="url(#paint1_linear_1_2)"/>
<ellipse cx="102.991" cy="111.841" rx="13.8889" ry="21.4238" fill="white"/>
<path d="M116.38 111.841C116.38 117.675 114.846 122.933 112.393 126.718C109.936 130.507 106.601 132.765 102.991 132.765C99.3819 132.765 96.0468 130.507 93.5901 126.718C91.1365 122.933 89.6026 117.675 89.6026 111.841C89.6026 106.007 91.1365 100.749 93.5901 96.9639C96.0468 93.1743 99.3819 90.9171 102.991 90.9171C106.601 90.9171 109.936 93.1743 112.393 96.9639C114.846 100.749 116.38 106.007 116.38 111.841Z" stroke="#3B82F6" stroke-opacity="0.8"/>
<ellipse cx="192.735" cy="111.841" rx="13.8889" ry="21.4238" fill="white"/>
<path d="M206.124 111.841C206.124 117.675 204.59 122.933 202.136 126.718C199.68 130.507 196.345 132.765 192.735 132.765C189.126 132.765 185.79 130.507 183.334 126.718C180.88 122.933 179.346 117.675 179.346 111.841C179.346 106.007 180.88 100.749 183.334 96.9639C185.79 93.1743 189.126 90.9171 192.735 90.9171C196.345 90.9171 199.68 93.1743 202.136 96.9639C204.59 100.749 206.124 106.007 206.124 111.841Z" stroke="#3B82F6" stroke-opacity="0.8"/>
<ellipse cx="150" cy="250.736" rx="125" ry="20.3526" fill="#3B82F6" fill-opacity="0.25"/>
<defs>
<linearGradient id="paint0_linear_1_2" x1="149.01" y1="218.244" x2="149.01" y2="34" gradientUnits="userSpaceOnUse">
<stop stop-color="#3B82F6" stop-opacity="0.8"/>
<stop offset="1" stop-color="#2563EB"/>
</linearGradient>
<linearGradient id="paint1_linear_1_2" x1="149.01" y1="219.245" x2="149.01" y2="35.0001" gradientUnits="userSpaceOnUse">
<stop stop-color="#3B82F6" stop-opacity="0.8"/>
<stop offset="1" stop-color="#2563EB"/>
</linearGradient>
</defs>
</svg>
