<svg width="560" height="560" viewBox="0 0 560 560" fill="none" xmlns="http://www.w3.org/2000/svg">
<rect width="560" height="560" fill="white"/>
<path d="M465.4 228.5C465.4 320.08 389.071 386.9 281.8 386.9C174.529 386.9 91 317.38 91 225.8C91 134.22 172.729 71 280 71C387.271 71 465.4 136.92 465.4 228.5Z" fill="url(#paint0_linear_3_14)"/>
<path d="M437.5 220.4C437.5 311.98 386.371 328.4 279.1 328.4C171.829 328.4 118 308.38 118 216.8C118 125.22 179.718 113.576 286.989 113.576C394.259 113.576 437.5 128.82 437.5 220.4Z" fill="url(#paint1_linear_3_14)"/>
<ellipse cx="195.385" cy="211.113" rx="25" ry="38.5628" fill="white"/>
<path d="M219.885 211.113C219.885 221.68 217.107 231.223 212.643 238.109C208.175 245.001 202.062 249.176 195.385 249.176C188.707 249.176 182.594 245.001 178.127 238.109C173.662 231.223 170.885 221.68 170.885 211.113C170.885 200.547 173.662 191.004 178.127 184.117C182.594 177.226 188.707 173.051 195.385 173.051C202.062 173.051 208.175 177.226 212.643 184.117C217.107 191.004 219.885 200.547 219.885 211.113Z" stroke="#3B82F6" stroke-opacity="0.8"/>
<ellipse cx="356.923" cy="211.113" rx="25" ry="38.5628" fill="white"/>
<path d="M381.423 211.113C381.423 221.68 378.646 231.223 374.181 238.109C369.714 245.001 363.601 249.176 356.923 249.176C350.245 249.176 344.132 245.001 339.665 238.109C335.201 231.223 332.423 221.68 332.423 211.113C332.423 200.547 335.201 191.004 339.665 184.117C344.132 177.226 350.245 173.051 356.923 173.051C363.601 173.051 369.714 177.226 374.181 184.117C378.646 191.004 381.423 200.547 381.423 211.113Z" stroke="#3B82F6" stroke-opacity="0.8"/>
<ellipse cx="280" cy="461.125" rx="225" ry="36.6347" fill="#3B82F6" fill-opacity="0.25"/>
<defs>
<linearGradient id="paint0_linear_3_14" x1="278.218" y1="402.64" x2="278.218" y2="71" gradientUnits="userSpaceOnUse">
<stop stop-color="#3B82F6" stop-opacity="0.8"/>
<stop offset="1" stop-color="#2563EB"/>
</linearGradient>
<linearGradient id="paint1_linear_3_14" x1="278.218" y1="404.44" x2="278.218" y2="72.8001" gradientUnits="userSpaceOnUse">
<stop stop-color="#3B82F6" stop-opacity="0.8"/>
<stop offset="1" stop-color="#2563EB"/>
</linearGradient>
</defs>
</svg>
