<svg width="480" height="480" viewBox="0 0 480 480" fill="none" xmlns="http://www.w3.org/2000/svg">
<rect width="480" height="480" fill="white"/>
<path d="M371.84 203.4C371.84 268.523 317.561 316.04 241.28 316.04C164.999 316.04 105.6 266.603 105.6 201.48C105.6 136.357 163.719 91.4 240 91.4C316.281 91.4 371.84 138.277 371.84 203.4Z" fill="url(#paint0_linear_2_5)"/>
<path d="M352 197.64C352 262.763 315.641 274.44 239.36 274.44C163.079 274.44 124.8 260.203 124.8 195.08C124.8 129.957 168.688 121.676 244.97 121.676C321.251 121.676 352 132.517 352 197.64Z" fill="url(#paint1_linear_2_5)"/>
<ellipse cx="179.829" cy="191.036" rx="17.7778" ry="27.4224" fill="white"/>
<path d="M197.107 191.036C197.107 198.527 195.138 205.285 191.98 210.155C188.82 215.03 184.512 217.959 179.829 217.959C175.146 217.959 170.838 215.03 167.678 210.155C164.52 205.285 162.551 198.527 162.551 191.036C162.551 183.546 164.52 176.788 167.678 171.918C170.838 167.043 175.146 164.114 179.829 164.114C184.512 164.114 188.82 167.043 191.98 171.918C195.138 176.788 197.107 183.546 197.107 191.036Z" stroke="#3B82F6" stroke-opacity="0.8"/>
<ellipse cx="294.701" cy="191.036" rx="17.7778" ry="27.4224" fill="white"/>
<path d="M311.979 191.036C311.979 198.527 310.009 205.285 306.852 210.155C303.692 215.03 299.384 217.959 294.701 217.959C290.017 217.959 285.71 215.03 282.55 210.155C279.392 205.285 277.423 198.527 277.423 191.036C277.423 183.546 279.392 176.788 282.55 171.918C285.71 167.043 290.017 164.114 294.701 164.114C299.384 164.114 303.692 167.043 306.852 171.918C310.009 176.788 311.979 183.546 311.979 191.036Z" stroke="#3B82F6" stroke-opacity="0.8"/>
<ellipse cx="240" cy="368.822" rx="160" ry="26.0513" fill="#3B82F6" fill-opacity="0.25"/>
<defs>
<linearGradient id="paint0_linear_2_5" x1="238.733" y1="327.233" x2="238.733" y2="91.4" gradientUnits="userSpaceOnUse">
<stop stop-color="#3B82F6" stop-opacity="0.8"/>
<stop offset="1" stop-color="#2563EB"/>
</linearGradient>
<linearGradient id="paint1_linear_2_5" x1="238.733" y1="328.513" x2="238.733" y2="92.6801" gradientUnits="userSpaceOnUse">
<stop stop-color="#3B82F6" stop-opacity="0.8"/>
<stop offset="1" stop-color="#2563EB"/>
</linearGradient>
</defs>
</svg>
